<?xml version="1.0" encoding="utf-8"?>
<!-- Generator: Adobe Illustrator 28.1.0, SVG Export Plug-In . SVG Version: 6.00 Build 0)  -->
<svg version="1.1" id="_レイヤー_2" xmlns="http://www.w3.org/2000/svg" xmlns:xlink="http://www.w3.org/1999/xlink" x="0px"
	 y="0px" viewBox="0 0 243.5 209.2" style="enable-background:new 0 0 243.5 209.2;" xml:space="preserve">
<style type="text/css">
	.st0{fill:#380071;}
	.st1{fill:url(#left_hand_00000060733653446629365170000014320882092941209243_);}
	.st2{fill:url(#right_hand_00000028282688742473632730000014215383215897929638_);}
	.st3{fill:#FFFFFF;}
</style>
<g id="_レイヤー_1-2">
	<g id="logo">
		<g id="heart">
			<path class="st0" d="M190.1,76.3c-9.7,15.3-39.3,45.9-67.7,58.4c-28.4-12.5-58-43.1-67.7-58.4c-7.3-11.5-11.3-23.6-10.5-37.2
				C45,27.3,50.8,15.9,60.2,8.7S81.9-1.5,93.6,0.8c12.3,2.4,23.3,10.9,29,22.1c5.6-11.2,16.6-19.7,29-22.1
				c11.6-2.3,24.1,0.7,33.4,7.9s15.3,18.6,15.9,30.4C201.5,52.7,197.5,64.8,190.1,76.3L190.1,76.3L190.1,76.3z"/>
		</g>
		
			<linearGradient id="left_hand_00000134930741523361230210000011660946764722928527_" gradientUnits="userSpaceOnUse" x1="-1.8485" y1="1110.4579" x2="126.8524" y2="1110.4579" gradientTransform="matrix(0.9998 -1.780142e-02 1.780142e-02 0.9998 -18.108 -1037.495)">
			<stop  offset="0" style="stop-color:#37F3EF"/>
			<stop  offset="0.33" style="stop-color:#4DB3F4"/>
			<stop  offset="1" style="stop-color:#7E2AFF"/>
		</linearGradient>
		<path id="left_hand" style="fill:url(#left_hand_00000134930741523361230210000011660946764722928527_);" d="M47.3,60.6
			c-1.9-3.7-1.5-7-2-6.8C37.8,56.4,2.5,65.2,0.1,82.7c-2.7,19.5,104.8-2.1,123.8-7.5c12.2-3.5-2.5-6.1-9.7-5.2s-9.2-0.9-9-3.2
			c0.2-2.7-2.4-4.8-5.1-4.2C84.9,66.1,51.3,68.3,47.3,60.6L47.3,60.6L47.3,60.6z"/>
		
			<linearGradient id="right_hand_00000048478688459373055460000004416207504727378608_" gradientUnits="userSpaceOnUse" x1="-788.9907" y1="907.8015" x2="-660.3463" y2="907.8015" gradientTransform="matrix(-0.999 4.361939e-02 -4.361939e-02 -0.999 -504.6988 979.3529)">
			<stop  offset="0" style="stop-color:#7E2AFF"/>
			<stop  offset="1" style="stop-color:#37F3EF"/>
		</linearGradient>
		<path id="right_hand" style="fill:url(#right_hand_00000048478688459373055460000004416207504727378608_);" d="M196.8,51.6
			c2,3.7,1.6,6.9,2.1,6.7c7.4-2.8,42.6-12.5,44.6-30.1C245.7,8.6,138.8,33,120,38.9c-12.1,3.8,2.6,6.1,9.8,5c7.2-1.1,9.2,0.7,9.1,3
			c-0.2,2.7,2.6,4.8,5.2,4.1C159.2,47,192.7,44,196.8,51.6L196.8,51.6L196.8,51.6z"/>
		<g>
			<path class="st3" d="M43.3,193.8v8.9c0,4.1-1.8,5.6-4.2,6.5H26.5c-2.4-0.9-4.2-2.4-4.2-6.5V195h8.6v6.6l0.5,0.5h2.7l0.5-0.5v-5.9
				l-0.5-0.8l-8.9-4c-2.6-1.2-3-3-3-5.9v-8.2c0-4.1,1.8-5.6,4.2-6.5H39c2.4,0.9,4.2,2.4,4.2,6.5v7.2h-8.6v-6.2l-0.5-0.5h-2.7
				l-0.5,0.5v5.7l0.7,0.9l8.7,3.5C42.9,188.9,43.3,190.8,43.3,193.8z"/>
			<path class="st3" d="M58.3,185.3v23.8h-8.1v-23.8h-3v-7h3v-5.8h8.1v5.8h3.5v7H58.3z"/>
			<path class="st3" d="M80.7,209.1h-11c-2.4-0.9-4.2-2.4-4.2-6.5v-17.8c0-4.1,1.8-5.6,4.2-6.5h11c2.4,0.9,4.2,2.4,4.2,6.5v10.9
				H73.5v6.4l0.5,0.5h2.2l0.5-0.5V198h8.1v4.6C84.9,206.7,83,208.2,80.7,209.1L80.7,209.1z M73.6,190.3h3.2v-5l-0.5-0.5h-2.2
				l-0.5,0.5V190.3z"/>
			<path class="st3" d="M89.6,170.2h8.1v38.9h-8.1V170.2z"/>
			<path class="st3" d="M102.3,170.2h8.1v38.9h-8.1V170.2z"/>
			<path class="st3" d="M126.2,206.3l-2.7,2.8h-4.4c-2.4-0.9-4.2-2.4-4.2-6.5v-6.1c0-4.1,1.8-5.6,4.2-6.5h4.6
				c0.8,0.3,1.7,0.8,2.5,1.5v-5.6l-0.5-0.5h-1.7l-0.5,0.5v1.8h-8.1v-2.9c0-4.1,1.8-5.6,4.2-6.5h10.5c2.4,0.9,4.2,2.4,4.2,6.5v24.3
				h-8.1L126.2,206.3C126.2,206.3,126.2,206.3,126.2,206.3z M123.6,202.6h2.2l0.5-0.5v-5l-0.5-0.5h-2.2l-0.5,0.5v5L123.6,202.6z"/>
			<path class="st3" d="M147.4,186.9h-0.3V209H139v-38.8h9.5l4.6,13.5h0.5l4.6-13.5h9.5v38.9h-8.1V187h-0.3l-2.7,8.6h-6.5
				L147.4,186.9z"/>
			<path class="st3" d="M187.6,209.1h-11c-2.4-0.9-4.2-2.4-4.2-6.5v-17.8c0-4.1,1.8-5.6,4.2-6.5h11c2.4,0.9,4.2,2.4,4.2,6.5v10.9
				h-11.4v6.4l0.5,0.5h2.2l0.5-0.5V198h8.1v4.6C191.9,206.7,189.9,208.2,187.6,209.1L187.6,209.1z M180.4,190.3h3.2v-5l-0.5-0.5
				h-2.2l-0.5,0.5V190.3z"/>
			<path class="st3" d="M211.8,209.1h-11c-2.4-0.9-4.2-2.4-4.2-6.5v-17.8c0-4.1,1.8-5.6,4.2-6.5h11c2.4,0.9,4.2,2.4,4.2,6.5v10.9
				h-11.3v6.4l0.5,0.5h2.2l0.5-0.5V198h8.1v4.6C215.9,206.7,214.1,208.2,211.8,209.1L211.8,209.1z M204.6,190.3h3.2v-5l-0.5-0.5
				h-2.2l-0.5,0.5V190.3z"/>
			<path class="st3" d="M231.1,185.3v23.8H223v-23.8h-3v-7h3v-5.8h8.1v5.8h3.5v7H231.1z"/>
		</g>
	</g>
</g>
</svg>
